<svg xmlns="http://www.w3.org/2000/svg" xmlns:xlink="http://www.w3.org/1999/xlink" width="95" height="95" viewBox="0 0 95 95">
  <defs>
    <clipPath id="clip-path">
      <rect id="Rectángulo_401542" data-name="Rectángulo 401542" width="46.523" height="76.939" transform="translate(0 0)" fill="none"/>
    </clipPath>
  </defs>
  <g id="Grupo_1101993" data-name="Grupo 1101993" transform="translate(11537.49 11818)">
    <g id="Grupo_1099896" data-name="Grupo 1099896" transform="translate(-11537.005 -11817.515)">
      <g id="Grupo_1098744" data-name="Grupo 1098744" transform="translate(0 0)">
        <g id="Grupo_1098741" data-name="Grupo 1098741">
          <g id="Rectángulo_400898" data-name="Rectángulo 400898" transform="translate(-0.485 -0.485)" fill="#fff" stroke="#fff" stroke-width="3" opacity="0.859">
            <rect width="95" height="95" rx="47.5" stroke="none"/>
            <rect x="1.5" y="1.5" width="92" height="92" rx="46" fill="none"/>
          </g>
          <g id="Rectángulo_400907" data-name="Rectángulo 400907" transform="translate(-0.485 -0.485)" fill="none" stroke="#fff" stroke-width="3">
            <rect width="95" height="95" rx="47.5" stroke="none"/>
            <rect x="1.5" y="1.5" width="92" height="92" rx="46" fill="none"/>
          </g>
        </g>
      </g>
    </g>
    <g id="Grupo_1099912" data-name="Grupo 1099912" transform="translate(-11513.252 -11808.969)">
      <g id="Grupo_1099908" data-name="Grupo 1099908" clip-path="url(#clip-path)">
        <path id="Trazado_877422" data-name="Trazado 877422" d="M34.179,49.253c-5.09.737-9.915,1.384-14.721,2.156a4.978,4.978,0,0,1-5.15-1.816C11.169,45.862,8.06,42.2,6.121,37.6,4.677,34.176,3.026,30.855,2.47,27.14c-1.082-7.235.445-13.795,5.5-19.219a14.727,14.727,0,0,1,8.648-4.708c3.686-.572,7.352-1.157,11.076-.578a22.869,22.869,0,0,1,9.691,3.746A12.942,12.942,0,0,1,41,10.686C44.394,16.8,45.472,23.18,42.987,30A156,156,0,0,1,35.681,46.78c-.488.968-1.126,1.861-1.5,2.473" fill="#e8a73f" fill-rule="evenodd"/>
        <path id="Trazado_877423" data-name="Trazado 877423" d="M36.85,58.865c.041.812.09,1.788.154,3.078-7.646.184-14.871,2.936-22.615,2.158-.139-.831-.265-1.59-.432-2.591,7.711-.666,14.995-3.21,22.893-2.645" fill="#fff" fill-rule="evenodd"/>
        <path id="Trazado_877424" data-name="Trazado 877424" d="M14.8,69.151c-.1-.966-.186-1.874-.268-2.7L36.8,63.691c.732,2.107.289,2.938-1.8,3.21-5.1.667-10.176,1.543-15.277,2.218a39.259,39.259,0,0,1-4.93.032" fill="#fff" fill-rule="evenodd"/>
        <path id="Trazado_877425" data-name="Trazado 877425" d="M33.65,69.316c.046,2.226-.759,3.558-2.64,4.266-1.945.733-3.71,1.746-6.018,1.448a5.664,5.664,0,0,1-4.972-3.8l13.63-1.913" fill="#7a9ad8" fill-rule="evenodd"/>
        <path id="Trazado_877426" data-name="Trazado 877426" d="M36.614,54.845c.064.805.1,1.227.127,1.573-.188.179-.274.336-.391.362a8,8,0,0,1-1.916.347C29.305,56.953,24.38,58.233,19.4,59.14c-1.762.322-3.577.355-5.5.532-.1-.705-.173-1.247-.292-2.108a225.432,225.432,0,0,1,23.011-2.719" fill="#fff" fill-rule="evenodd"/>
        <path id="Trazado_877427" data-name="Trazado 877427" d="M36.648,51.557c-.14.624-.233,1.039-.294,1.314l-22.7,2.818c-.1-.378-.221-.822-.424-1.574,7.858-.7,15.381-2.82,23.419-2.558" fill="#fff" fill-rule="evenodd"/>
        <path id="Trazado_877428" data-name="Trazado 877428" d="M37.279,49.2c1.45.87,1.412.865,1.2,2.764a19.2,19.2,0,0,0-.01,2.617c.09,3.709.264,7.417.259,11.125,0,2.367-.12,2.366-2.514,2.97a3.938,3.938,0,0,0-.6.308c-.133.606-.33,1.363-.461,2.132A4.915,4.915,0,0,1,32.7,74.806a14.563,14.563,0,0,1-7.219,2.133,6.765,6.765,0,0,1-6.559-3.818A3.4,3.4,0,0,0,15.546,71c-2.389-.016-2.366-.148-2.607-2.646-.491-5.066-1.011-10.131-1.513-15.2a2.532,2.532,0,0,1,.131-.581l1.727-.678c-.088-.242-.1-.482-.229-.6C7.042,45.541,3.364,38.381,1.05,30.55a26.039,26.039,0,0,1,.263-15.476A20.765,20.765,0,0,1,9.047,4.036,20.4,20.4,0,0,1,18.922.275,51.242,51.242,0,0,1,26.958.067c4,.181,7.469,1.784,10.879,3.6,2.628,1.405,4.086,3.937,5.472,6.394a26.723,26.723,0,0,1,3.213,13.221,19.039,19.039,0,0,1-1.453,7.236c-2.488,6.2-5.131,12.329-7.79,18.674m-3.1.056c.376-.612,1.014-1.5,1.5-2.473A155.916,155.916,0,0,0,42.987,30C45.471,23.18,44.393,16.8,41,10.686a12.955,12.955,0,0,0-3.608-4.3A22.887,22.887,0,0,0,27.7,2.635c-3.725-.579-7.391.007-11.076.578A14.729,14.729,0,0,0,7.973,7.921c-5.058,5.425-6.586,11.985-5.5,19.219.556,3.715,2.207,7.037,3.652,10.462,1.938,4.6,5.048,8.261,8.186,11.992a4.98,4.98,0,0,0,5.151,1.815c4.805-.771,9.63-1.419,14.72-2.156m2.672,9.613c-7.9-.566-15.181,1.978-22.892,2.644.167,1,.293,1.76.431,2.591,7.744.779,14.969-1.974,22.616-2.158-.065-1.289-.114-2.266-.155-3.077M14.8,69.151a39.054,39.054,0,0,0,4.929-.032C24.827,68.444,29.9,67.569,35,66.9c2.084-.272,2.527-1.1,1.794-3.209L14.528,66.454c.082.824.172,1.731.268,2.7m18.854.165L20.02,71.229a5.662,5.662,0,0,0,4.972,3.8c2.308.3,4.073-.714,6.018-1.448,1.881-.708,2.686-2.04,2.64-4.266m2.964-14.47A225.151,225.151,0,0,0,13.6,57.565c.119.861.194,1.4.292,2.107,1.925-.176,3.74-.21,5.5-.531,4.983-.907,9.907-2.188,15.037-2.013a8.056,8.056,0,0,0,1.916-.347c.116-.027.2-.183.391-.362-.028-.346-.063-.769-.127-1.573m.034-3.289c-8.038-.262-15.561,1.858-23.419,2.558.2.752.322,1.2.424,1.574l22.7-2.818c.061-.275.154-.69.294-1.314" fill="#2a3e84" fill-rule="evenodd"/>
        <path id="Trazado_877429" data-name="Trazado 877429" d="M14.051,33.988c3.616,5.375,4.911,11.728,6.687,17.851a.625.625,0,0,0,1.2-.333c-1.8-6.223-3.138-12.687-6.813-18.149-.446-.664-1.53-.039-1.079.631" fill="#2a3e84"/>
        <path id="Trazado_877430" data-name="Trazado 877430" d="M32.738,32.506c-1.474,5.831-1.982,11.835-3,17.75-.135.787,1.069,1.125,1.2.332,1.018-5.915,1.527-11.918,3-17.75a.625.625,0,0,0-1.205-.332" fill="#2a3e84"/>
        <path id="Trazado_877431" data-name="Trazado 877431" d="M14.341,33.422c2.5,3,9.5,3.75,7.75-2-1.5-5.25-6.5,5.25,1.25,5,1.25,0,5.25-2.75,5.75-4.25.5-2.75-3-4.5-4-1.5-.5,2,1,4.75,2.75,5.25,2.5.75,4.25-2,5.5-3.5" fill="none" stroke="#2a3e84" stroke-linecap="round" stroke-linejoin="round" stroke-width="1"/>
        <path id="Trazado_877432" data-name="Trazado 877432" d="M19.841,8.422c9.719-6.161,24.356,1.4,19.25,13.5a29.694,29.694,0,0,0-2.956-5.938c-3.8-5.328-10.254-5.794-16.294-7.562" fill="#fff"/>
      </g>
    </g>
  </g>
</svg>
