<svg xmlns="http://www.w3.org/2000/svg" xmlns:xlink="http://www.w3.org/1999/xlink" width="95" height="95" viewBox="0 0 95 95">
  <defs>
    <clipPath id="clip-path">
      <rect id="Rectángulo_401543" data-name="Rectángulo 401543" width="63.66" height="68.971" transform="translate(0 0)" fill="none"/>
    </clipPath>
  </defs>
  <g id="Grupo_1101991" data-name="Grupo 1101991" transform="translate(11720 11818)">
    <g id="Grupo_1099329" data-name="Grupo 1099329" transform="translate(-11719.515 -11817.515)">
      <g id="Grupo_1098744" data-name="Grupo 1098744" transform="translate(0 0)">
        <g id="Grupo_1098741" data-name="Grupo 1098741">
          <g id="Rectángulo_400898" data-name="Rectángulo 400898" transform="translate(-0.485 -0.485)" fill="#fff" stroke="#fff" stroke-width="3" opacity="0.859">
            <rect width="95" height="95" rx="47.5" stroke="none"/>
            <rect x="1.5" y="1.5" width="92" height="92" rx="46" fill="none"/>
          </g>
          <g id="Rectángulo_400907" data-name="Rectángulo 400907" transform="translate(-0.485 -0.485)" fill="none" stroke="#fff" stroke-width="3">
            <rect width="95" height="95" rx="47.5" stroke="none"/>
            <rect x="1.5" y="1.5" width="92" height="92" rx="46" fill="none"/>
          </g>
        </g>
      </g>
    </g>
    <g id="Grupo_1099913" data-name="Grupo 1099913" transform="translate(-11704.33 -11804.985)">
      <g id="Grupo_1099910" data-name="Grupo 1099910" clip-path="url(#clip-path)">
        <path id="Trazado_877433" data-name="Trazado 877433" d="M30.736,39.9c-2.527.118-4.242-1.225-4.478-3.708-.243-2.584.937-4.8,3.662-5.291a10.525,10.525,0,0,1,2.471-.229c2.99.171,3.733,1.347,4.2,3.842.6,3.238-1.027,4.824-4.58,5.378a9,9,0,0,1-1.272.008" fill="#cb5088" fill-rule="evenodd"/>
        <path id="Trazado_877434" data-name="Trazado 877434" d="M14.666,34.463c-1.719-1.606-3.4-3.06-4.945-4.652a28.264,28.264,0,0,1-5.385-6.756,8.772,8.772,0,0,1,.41-8.777A3.713,3.713,0,0,1,6.5,12.825a8.912,8.912,0,0,1,7.761.106c2.357,1.233,4.759,2.379,7.2,3.59.363-1.628.646-3.265,1.1-4.851A24.6,24.6,0,0,1,24.24,6.964C26.7,2.313,31.12.191,36.307,1.885a6.374,6.374,0,0,1,3.648,3.706c1.291,2.731,1.487,5.7,1.649,8.655.03.534.069,1.067.118,1.812,1.165-.593,2.162-1.062,3.12-1.6a24.575,24.575,0,0,1,8.307-2.922c4.59-.688,9.113,3.945,8.353,8.365a14.472,14.472,0,0,1-3.9,7.434c-2.369,2.584-4.785,5.124-7.248,7.756,1.053.984,2.08,2,3.167,2.949a32.857,32.857,0,0,1,7.37,8.793,10.522,10.522,0,0,1,1.282,6.59A6.322,6.322,0,0,1,55,58.825c-5.176-.719-9.792-2.864-14.271-5.4-.241-.136-.473-.291-.723-.409-.083-.038-.207.014-.435.038-.305,1.93-.516,3.916-.953,5.85a38.347,38.347,0,0,1-1.636,5.41,7.194,7.194,0,0,1-4.935,4.146,8.083,8.083,0,0,1-7.185-.733A7.923,7.923,0,0,1,22,64.312,20.664,20.664,0,0,1,19.9,55.6a2.944,2.944,0,0,0-.132-.55c-.8.307-1.558.622-2.334.894-2.73.959-5.442,1.978-8.206,2.83-1.993.614-4.081.944-5.969-.353A18.371,18.371,0,0,1,.479,56.051,2.285,2.285,0,0,1,0,54.514a9.46,9.46,0,0,1,.965-4.207,42.7,42.7,0,0,1,5.89-8.7c1.612-1.763,3.492-3.282,5.262-4.9.819-.748,1.662-1.469,2.547-2.247M39.987,51.385a41.764,41.764,0,0,0,11.385,5.24,17.863,17.863,0,0,0,4.756.705,4.426,4.426,0,0,0,4.328-3.689c.748-2.98-.363-5.548-1.881-7.879-2.481-3.81-5.942-6.746-9.358-9.715a5.474,5.474,0,0,0-.763.431c-2.389,1.92-4.782,3.836-7.138,5.795a1.81,1.81,0,0,0-.579,1.1c-.282,2.647-.5,5.3-.75,8.01m-24.3-16.034c-1.95,1.691-3.788,3.31-5.656,4.894A30.645,30.645,0,0,0,3.866,47.9c-1.155,1.895-2.5,3.733-2.512,6.107a2.531,2.531,0,0,0,.105,1.113,5.557,5.557,0,0,0,5.8,2.734c2.379-.561,4.737-1.242,7.057-2.011,1.883-.625,3.7-1.46,5.561-2.209a17.142,17.142,0,0,1-.257-2.144c.035-3.279.016-6.562.211-9.832.121-2.025-.022-3.713-2.141-4.681a11.1,11.1,0,0,1-2.008-1.626m33.442-1.31c3.253-2.583,5.656-5.668,8.273-8.556a11.1,11.1,0,0,0,2.5-5.014,5.036,5.036,0,0,0-.239-3.432,6.913,6.913,0,0,0-7.439-3.867c-3.823.782-7.15,2.659-10.422,4.533-.147,2.838-.247,5.566-.442,8.287-.127,1.769-.029,3.343,1.993,4.014.147.049.252.218.389.312,1.784,1.234,3.568,2.465,5.391,3.723M40.3,16.71a28.166,28.166,0,0,0-1.25-9.848,5.19,5.19,0,0,0-3.416-3.587A8.328,8.328,0,0,0,25.75,7.187,22.541,22.541,0,0,0,23.189,14.9c-.165.851-.2,1.726-.284,2.488,2.617,1.534,5.063,2.958,7.5,4.4a1.463,1.463,0,0,0,1.687-.2q1.969-1.236,3.966-2.427c1.383-.821,2.784-1.612,4.247-2.455M32.456,48.3,21.168,54.455a18.715,18.715,0,0,0,2.03,9.34,6.071,6.071,0,0,0,2.032,2.581,7.4,7.4,0,0,0,7.885.326,6.28,6.28,0,0,0,3.306-4,61.043,61.043,0,0,0,2.053-10.65L32.456,48.3M15.682,33.555c1.338-1.078,2.6-2.157,3.93-3.144a2.745,2.745,0,0,0,1.158-2.258c.148-2.94.316-5.88.534-8.815a1.471,1.471,0,0,0-.869-1.6q-3.547-1.849-7.081-3.722c-2.246-1.184-4.441-.569-6.61.227a1.91,1.91,0,0,0-.818.8,7.328,7.328,0,0,0-.915,5.905,12.673,12.673,0,0,0,2.864,4.828,74,74,0,0,0,7.807,7.78m15.4-9.76c-2.069,1.4-4.123,2.741-6.121,4.161-3.418,2.429-3.4,2.45-3.534,6.62-.036,1.164-.422,2.5.021,3.444s1.712,1.521,2.637,2.234c2.777,2.143,5.562,4.274,8.486,6.519,2.151-1.471,4.283-2.879,6.345-4.384a2.4,2.4,0,0,0,.661-1.438,20.91,20.91,0,0,0,.2-2.5c.158-2.668.339-5.335.43-8a1.643,1.643,0,0,0-.624-1.219c-2.789-1.837-5.62-3.606-8.5-5.435M20.988,53.125l10.445-5.654c-3.673-2.377-6.546-5.337-10.366-7.611-.178,4.5-.318,8.695-.079,13.265M40.4,18.16l-8.088,4.76c2.686,1.7,5.15,3.254,7.826,4.945.127-2.841.248-5.382.35-7.926.018-.435-.04-.873-.088-1.779m.429,22.8a66.624,66.624,0,0,0,7.237-5.928L41.5,30.5c-.227,3.586-.441,6.943-.665,10.464M21.858,28.087l.409.136,7.616-5.271L22.574,18.9c-.255,3.285-.486,6.237-.716,9.189M33.73,47.468,39,50.925c.158-2.567.293-4.778.441-7.19L33.73,47.468m-17.1-12.987,3.39,2.663c.116-2.079.209-3.747.323-5.793l-3.713,3.13" fill="#2a3e84" fill-rule="evenodd"/>
        <path id="Trazado_877435" data-name="Trazado 877435" d="M38.069,35.408a5.167,5.167,0,0,1-3.647,5.2,20.716,20.716,0,0,1-2.881.71c-4.369.932-7.108-2.7-6.6-6.889A6.09,6.09,0,0,1,30.695,29.1a12.546,12.546,0,0,1,2.159-.1c3.3.347,5.263,2.793,5.215,6.407M30.736,39.9a9,9,0,0,0,1.272-.008c3.553-.554,5.181-2.14,4.58-5.378-.464-2.495-1.207-3.671-4.2-3.842a10.525,10.525,0,0,0-2.471.229c-2.725.5-3.905,2.707-3.662,5.291.236,2.483,1.951,3.826,4.478,3.708" fill="#2a3e84" fill-rule="evenodd"/>
        <path id="Trazado_877436" data-name="Trazado 877436" d="M52.769,9.145c-2.819-.1-4.229,2.5-3.826,5.1.5,3.02,4.055,3.695,6.343,2.291,3.021-1.853,1.875-7.6-2.517-7.393" fill="#e8a73f"/>
        <path id="Trazado_877437" data-name="Trazado 877437" d="M9.463,54.032c-2.819-.1-4.229,2.5-3.826,5.1.5,3.019,4.055,3.694,6.343,2.29,3.021-1.852,1.875-7.6-2.517-7.393" fill="#fff"/>
        <path id="Trazado_877438" data-name="Trazado 877438" d="M36.553,59.68c-2.819-.1-4.229,2.5-3.826,5.1.5,3.021,4.056,3.695,6.343,2.291,3.021-1.852,1.875-7.6-2.517-7.393" fill="#e8a73f"/>
        <path id="Trazado_877439" data-name="Trazado 877439" d="M27.456.006c-2.819-.1-4.229,2.5-3.826,5.1.5,3.02,4.055,3.7,6.343,2.291C32.994,5.546,31.848-.2,27.456.006" fill="#fff"/>
        <path id="Trazado_877440" data-name="Trazado 877440" d="M7.213,22.327c-2.819-.1-4.229,2.5-3.826,5.1.5,3.021,4.055,3.695,6.343,2.292,3.021-1.854,1.875-7.6-2.517-7.394" fill="#90cbd3"/>
        <path id="Trazado_877441" data-name="Trazado 877441" d="M59.453,42.028c-2.819-.1-4.229,2.5-3.826,5.1.5,3.02,4.055,3.695,6.343,2.291,3.021-1.853,1.875-7.6-2.517-7.393" fill="#90cbd3"/>
      </g>
    </g>
  </g>
</svg>
